
<svg width="71" height="71" viewBox="0 0 71 71" fill="none" xmlns="http://www.w3.org/2000/svg">
	<circle cx="35.5" cy="35.5" r="35.5" fill="white" />
	<path
		d="M55.1875 27.0625C55.1875 25.1977 54.4467 23.4093 53.1281 22.0907C51.8095 20.772 50.0211 20.0312 48.1563 20.0312H21.4375C19.8229 20.0322 18.2579 20.5889 17.0052 21.6076C15.7526 22.6264 14.8888 24.0452 14.5589 25.6258C14.229 27.2063 14.4531 28.8522 15.1935 30.287C15.934 31.7218 17.1456 32.8581 18.625 33.5049V48.1562C18.625 48.9022 18.9213 49.6175 19.4488 50.145C19.9762 50.6724 20.6916 50.9688 21.4375 50.9688H48.1563C48.9022 50.9688 49.6176 50.6724 50.145 50.145C50.6725 49.6175 50.9688 48.9022 50.9688 48.1562V33.5049C52.2216 32.9567 53.2876 32.0555 54.0368 30.9115C54.786 29.7674 55.1858 28.43 55.1875 27.0625ZM21.4375 34.0938C21.8105 34.0938 22.1682 33.9456 22.4319 33.6819C22.6956 33.4181 22.8438 33.0605 22.8438 32.6875C22.8438 32.3145 22.6956 31.9569 22.4319 31.6931C22.1682 31.4294 21.8105 31.2812 21.4375 31.2812C20.3186 31.2812 19.2456 30.8368 18.4544 30.0456C17.6632 29.2544 17.2188 28.1814 17.2188 27.0625C17.2188 25.9436 17.6632 24.8706 18.4544 24.0794C19.2456 23.2882 20.3186 22.8438 21.4375 22.8438H38.3125C39.4314 22.8438 40.5045 23.2882 41.2956 24.0794C42.0868 24.8706 42.5313 25.9436 42.5313 27.0625C42.5313 28.1814 42.0868 29.2544 41.2956 30.0456C40.5045 30.8368 39.4314 31.2812 38.3125 31.2812C37.9396 31.2812 37.5819 31.4294 37.3181 31.6931C37.0544 31.9569 36.9063 32.3145 36.9063 32.6875C36.9063 33.0605 37.0544 33.4181 37.3181 33.6819C37.5819 33.9456 37.9396 34.0938 38.3125 34.0938V48.1562H21.4375V34.0938ZM48.1563 31.2812C47.7833 31.2812 47.4256 31.4294 47.1619 31.6931C46.8982 31.9569 46.75 32.3145 46.75 32.6875C46.75 33.0605 46.8982 33.4181 47.1619 33.6819C47.4256 33.9456 47.7833 34.0938 48.1563 34.0938V48.1562H41.125V33.5049C42.097 33.0805 42.9603 32.4417 43.6505 31.6364C44.3406 30.8311 44.8396 29.8801 45.1101 28.8546C45.3806 27.8292 45.4157 26.7558 45.2126 25.7148C45.0096 24.6739 44.5736 23.6924 43.9375 22.8438H48.1563C49.2752 22.8438 50.3482 23.2882 51.1394 24.0794C51.9305 24.8706 52.375 25.9436 52.375 27.0625C52.375 28.1814 51.9305 29.2544 51.1394 30.0456C50.3482 30.8368 49.2752 31.2812 48.1563 31.2812Z"
		fill="#343330"
	/>
</svg>
